<?xml version="1.0" encoding="UTF-8"?>
<svg xmlns="http://www.w3.org/2000/svg" version="1.1" viewBox="0 0 1213.64 200.27">
  <defs>
    <style>
      .cls-1 {
        fill: none;
      }

      .cls-2 {
        fill: #b92638;
      }

      .cls-3 {
        fill: #231815;
      }
    </style>
  </defs>
  <!-- Generator: Adobe Illustrator 28.6.0, SVG Export Plug-In . SVG Version: 1.2.0 Build 709)  -->
  <g>
    <g id="_レイヤー_1" data-name="レイヤー_1">
      <polygon class="cls-1" points="615.57 54.32 615.75 54.08 615.35 54.6 615.57 54.32"/>
      <g>
        <g>
          <polygon class="cls-2" points="619.47 106.14 618.6 108.91 621.64 108.91 620.28 106.14 619.47 106.14"/>
          <g>
            <path class="cls-2" d="M612.64,90.41c-.05-.16-.11-.32-.18-.48-.05-.13-.11-.26-.16-.39-.2-.5-.43-1-.68-1.48-.44-.83-.95-1.62-1.51-2.37-.26-.35-.53-.68-.81-1.01-1.73-1.97-3.92-3.52-6.35-4.51,0,.19-.02.38-.02.57v.46s0,.25,0,.25c.04.66.23,1.62.58,2.66,1.24.74,2.37,1.66,3.33,2.75.73.83,1.37,1.75,1.88,2.73.03.05.05.11.08.17.21.42.4.84.57,1.28h2.47s1.02,0,1.02,0c-.08-.21-.14-.42-.21-.62Z"/>
            <path class="cls-2" d="M618.94,90.03l-.36-.73-.18-.37c-.08-.15-.12-.31-.18-.47-.07-.22-.15-.43-.24-.65-.33-.86-.71-1.7-1.13-2.51-.02-.04-.04-.08-.06-.12-.47-.88-1-1.74-1.58-2.55-.46-.64-.95-1.27-1.47-1.86-.24-.27-.49-.54-.74-.8-2.31-2.38-5.14-4.26-8.23-5.46-.14-.05-.28-.1-.42-.16-.47.96-.82,2-1.06,3.11.1.04.2.07.3.11,2.95,1.14,5.6,2.99,7.69,5.36,0,0,.01.01.02.02.84.95,1.58,1.98,2.22,3.07.15.26.3.53.44.8.37.7.69,1.42.97,2.15.06.15.11.3.17.46.01.03.02.07.04.1.09.24.15.5.28.72l.37.76h3.66l-.49-1Z"/>
            <path class="cls-2" d="M625.1,89.15l-.85-1.73-.44-.89h0c-.1-.28-.19-.55-.3-.82,0-.03-.02-.05-.03-.08-.35-.92-.76-1.82-1.2-2.69-.06-.13-.13-.25-.19-.38-.47-.89-.98-1.75-1.54-2.59-.49-.74-1.02-1.45-1.57-2.14-.26-.32-.53-.65-.8-.96-.45-.51-.92-1-1.4-1.48-2.4-2.37-5.23-4.32-8.3-5.72-1.03.68-1.93,1.5-2.69,2.43,3.27,1.27,6.29,3.24,8.78,5.72.39.39.78.8,1.14,1.22.37.42.72.85,1.06,1.29.57.73,1.09,1.5,1.58,2.29.29.48.57.96.83,1.46.33.63.63,1.27.91,1.92.12.29.24.58.36.88.09.24.18.48.26.72.04.1.05.18.1.27l.49,1,.15.31.91,1.86h3.66l-.93-1.88Z"/>
          </g>
          <g>
            <path class="cls-2" d="M646.38,117.26c-.18-1.1-.46-2.18-.85-3.22-.03-.08-.05-.16-.09-.24-.29-.74-.63-1.45-1.02-2.14-.55-.98-1.19-1.9-1.92-2.75-.54-.63-1.11-1.23-1.73-1.77-.31-.28-.64-.53-.97-.79-.24.85-.48,1.7-.72,2.56-.09.3-.17.6-.26.9.77.71,1.47,1.51,2.07,2.39.57.83,1.05,1.71,1.42,2.63.03.06.05.12.08.18.39,1,.66,2.04.81,3.11.12.87.16,1.75.12,2.62-.01.26-.03.52-.06.78-.09.85-.26,1.69-.5,2.51-.39,1.31-.97,2.56-1.71,3.69-.61.92-1.32,1.76-2.14,2.52-.81.75-1.73,1.42-2.69,1.96-1.93,1.08-4.1,1.69-6.32,1.76-.05,0-.09,0-.14,0-.22.39-.46.79-.71,1.19-.26.41-.53.83-.83,1.26-.15.22-.31.44-.49.66l-.06.08c.77.08,1.55.11,2.33.09,2.74-.08,5.44-.83,7.83-2.17,2.39-1.34,4.47-3.25,5.96-5.53,1.18-1.78,2.01-3.79,2.45-5.88.13-.59.23-1.18.29-1.78.06-.62.09-1.23.09-1.85,0-.92-.08-1.84-.23-2.75Z"/>
            <path class="cls-2" d="M652.31,116.9c-.13-.97-.33-1.92-.58-2.87-.22-.81-.48-1.6-.78-2.38-.12-.32-.26-.63-.39-.94-.37-.84-.79-1.65-1.26-2.44-.57-.96-1.21-1.88-1.91-2.75-.82-1.02-1.73-1.97-2.71-2.83-1.01-.89-2.1-1.69-3.25-2.39-.29,1.11-.59,2.22-.89,3.33.69.46,1.34.97,1.96,1.52.86.76,1.65,1.59,2.37,2.49.69.86,1.3,1.77,1.84,2.72.43.77.82,1.58,1.14,2.4,0,.03.02.05.03.07.4,1.03.72,2.1.94,3.18.19.92.31,1.86.37,2.8.07,1.1.04,2.21-.07,3.31-.02.13-.03.27-.05.4-.38,3-1.45,5.91-3.12,8.43-1.73,2.63-4.12,4.84-6.87,6.38-2.75,1.55-5.87,2.41-9.03,2.51-1.48.05-2.97-.08-4.43-.36-.09.09-.17.19-.26.28-.8.84-1.67,1.64-2.57,2.4,2.38.71,4.87,1.04,7.36.96,3.68-.11,7.33-1.12,10.53-2.93,3.21-1.8,5.98-4.36,8.01-7.44,2.03-3.07,3.3-6.63,3.69-10.29.06-.59.1-1.18.12-1.77.04-1.27-.03-2.55-.2-3.81Z"/>
            <path class="cls-2" d="M658.18,116.13c-.19-1.36-.46-2.71-.84-4.03-.25-.88-.54-1.75-.87-2.6-.05-.14-.11-.27-.17-.41-.49-1.2-1.06-2.37-1.71-3.49-.51-.88-1.06-1.74-1.66-2.57-.74-1.02-1.54-1.99-2.41-2.91-.61-.65-1.25-1.27-1.92-1.86-1.72-1.52-3.62-2.82-5.65-3.89-.27,1.1-.55,2.19-.83,3.29,1.53.87,2.98,1.89,4.3,3.06.93.82,1.8,1.71,2.6,2.66.75.89,1.45,1.82,2.07,2.8.51.8.98,1.63,1.4,2.48.33.66.63,1.34.9,2.03.18.45.34.9.49,1.36.31.96.57,1.94.77,2.93.26,1.29.42,2.59.47,3.9.06,1.29.02,2.59-.12,3.88-.43,4.07-1.85,8.03-4.11,11.46-2.26,3.43-5.35,6.28-8.92,8.28-3.57,2.01-7.64,3.14-11.74,3.26-3.39.11-6.79-.46-9.96-1.67-1.12.76-2.29,1.45-3.52,2.06.05.02.11.05.16.08,4.17,1.99,8.81,2.96,13.43,2.81,4.61-.14,9.21-1.41,13.24-3.68,2.02-1.13,3.88-2.49,5.57-4.06,1.7-1.57,3.2-3.35,4.48-5.28,2.55-3.86,4.15-8.33,4.63-12.92.25-2.32.21-4.67-.1-6.98Z"/>
          </g>
          <g>
            <path class="cls-2" d="M642.38,115c-.02-.06-.05-.12-.08-.18h-25.56l-1.04,3.29h27.48c-.15-1.07-.42-2.11-.81-3.11Z"/>
            <path class="cls-2" d="M631.89,120.74h-16.35c.03.56.09,1.12.18,1.67.09.55.22,1.08.38,1.61h26.65c.24-.82.41-1.66.5-2.51.03-.26.05-.52.06-.78h-11.42Z"/>
            <path class="cls-2" d="M638.82,109.81c.09-.3.17-.6.26-.9h-20.48l-1.04,3.29h23.32c-.6-.87-1.3-1.68-2.07-2.39Z"/>
          </g>
          <g>
            <path class="cls-2" d="M633.24,82.74c-1.09.33-2.16.78-3.12,1.33-.1.05-.19.11-.28.17l-.89,3.76c-.25,1.01-.5,2.02-.75,3.03-.24.98-.49,1.95-.74,2.93-.03.12-.06.24-.09.36-.17.67-.34,1.34-.52,2.01-.05.21-.11.41-.16.61-.17.62-.33,1.25-.5,1.87-.13.47-.25.94-.38,1.41-.22.81-.44,1.61-.67,2.41-.02.07-.04.14-.06.22-.31,1.1-.62,2.19-.94,3.29-.12.4-.23.79-.35,1.18-.16.53-.31,1.05-.48,1.58h3.44c.19-.62.37-1.25.56-1.88.09-.3.17-.59.26-.88.28-.96.55-1.92.82-2.88.04-.14.08-.27.11-.41.24-.88.48-1.75.72-2.63.16-.59.32-1.17.47-1.76.12-.44.23-.87.35-1.31.02-.07.04-.14.05-.21.23-.87.45-1.73.67-2.6.27-1.08.54-2.16.81-3.24.19-.78.39-1.56.58-2.35l1-4.21.44-1.91c-.11.03-.22.06-.34.09Z"/>
            <path class="cls-2" d="M636.5,82.17s-.08,0-.13,0l-.19.85-.49,2.12-1,4.24c-.17.68-.34,1.36-.51,2.05-.26,1.07-.53,2.13-.8,3.2-.21.86-.43,1.71-.66,2.56-.05.21-.11.43-.16.64-.22.85-.45,1.71-.68,2.56-.15.55-.3,1.11-.45,1.66-.08.3-.17.6-.25.91-.3,1.07-.6,2.15-.9,3.21-.06.2-.12.41-.18.61-.21.71-.41,1.42-.62,2.12h3.43c.21-.71.42-1.42.62-2.14.03-.1.05-.2.08-.3.27-.95.54-1.91.8-2.87.23-.85.46-1.69.69-2.54.22-.8.43-1.61.64-2.41.07-.26.13-.51.2-.77.22-.85.44-1.7.65-2.55.27-1.06.53-2.13.8-3.19.16-.67.33-1.33.49-2l1.01-4.27.49-2.14.3-1.37c-1.05-.19-2.13-.27-3.2-.21Z"/>
            <path class="cls-2" d="M642.96,83.4c-.24-.11-.48-.21-.73-.3l-.27,1.24-.49,2.15-1.01,4.29c-.18.74-.36,1.48-.54,2.22-.26,1.07-.53,2.15-.8,3.22-.22.86-.44,1.71-.66,2.57-.05.18-.09.37-.14.55-.23.89-.47,1.78-.71,2.67-.23.86-.46,1.72-.7,2.58-.3,1.07-.6,2.15-.91,3.22-.11.37-.21.74-.32,1.12h3.42c.25-.85.49-1.71.72-2.56.25-.9.5-1.8.74-2.71.3-1.11.6-2.22.89-3.33.01-.05.03-.1.04-.16.21-.83.43-1.66.64-2.49.28-1.1.56-2.19.83-3.29.23-.94.47-1.89.7-2.83l1.02-4.32.49-2.17.08-.35c-.72-.5-1.48-.95-2.28-1.31Z"/>
          </g>
          <g>
            <path class="cls-2" d="M625.51,66.4c-2.36-1.39-5.04-2.19-7.78-2.34-.34-.02-.68-.03-1.03-.02-.36,0-.71.01-1.07.03-.71.04-1.41.11-2.1.23-1.38.22-2.73.59-4,1.11-1.73.7-3.3,1.68-4.66,2.9-.63.57-1.22,1.18-1.74,1.84-.23.29-.45.6-.66.91-.51.75-.95,1.55-1.32,2.4-.44,1-.79,2.05-1.04,3.14-.07.31-.13.61-.19.92-.09.55-.16,1.11-.21,1.68-.01.14-.03.28-.04.42-.02.35-.04.71-.04,1.07v.54c0,.14,0,.28.01.42.02.3.05.61.1.93.14.91.4,1.91.75,2.91.65,1.85,1.56,3.72,2.62,5.58.23,0,.46-.02.69-.02h3.12c-.61-.99-1.18-1.98-1.7-2.96-.66-1.26-1.22-2.52-1.63-3.68-.03-.1-.07-.19-.1-.29-.34-1.04-.54-2-.58-2.66v-.25s0-.46,0-.46c0-.19.01-.38.02-.57,0-.11,0-.23.01-.34.04-.6.11-1.19.21-1.76.04-.2.08-.4.12-.6.24-1.12.6-2.15,1.06-3.11.38-.78.83-1.51,1.36-2.18.03-.03.05-.06.08-.09.76-.93,1.66-1.75,2.69-2.43.71-.47,1.48-.88,2.3-1.21,1.03-.42,2.13-.72,3.28-.91.58-.09,1.17-.16,1.76-.19.3-.02.6-.02.9-.03.29,0,.56,0,.85.02,2.22.12,4.38.76,6.29,1.89.32.19.62.39.93.6,1.15-.54,2.32-1,3.52-1.38-.86-.77-1.79-1.46-2.78-2.05Z"/>
            <path class="cls-2" d="M628.51,61.31c-3.17-1.87-6.8-2.96-10.47-3.15-1.84-.09-3.65.01-5.46.3-1.8.29-3.58.78-5.29,1.47-3.41,1.38-6.51,3.62-8.81,6.54-.16.2-.32.4-.47.61-.75,1.02-1.4,2.11-1.95,3.24-.42.87-.79,1.76-1.1,2.67-.37,1.11-.66,2.24-.86,3.38,0,.04-.02.09-.03.13-.15.85-.25,1.71-.31,2.56,0,.05,0,.1-.01.15-.03.45-.05.91-.06,1.36v.68c0,.24,0,.49.02.73,0,.14.02.28.04.42.16,1.76.59,3.43,1.14,5.01.56,1.58,1.23,3.09,1.98,4.55,1.11-.29,2.23-.51,3.36-.67-.87-1.62-1.64-3.27-2.23-4.96-.48-1.38-.84-2.8-.96-4.17-.01-.13-.02-.25-.03-.38-.01-.19-.02-.37-.02-.56v-.6c0-.4.03-.8.05-1.2.01-.19.03-.37.04-.56.05-.61.13-1.21.24-1.81.04-.27.1-.53.15-.8.23-1.1.56-2.18.97-3.22.35-.87.76-1.71,1.23-2.51.42-.71.87-1.38,1.38-2.02.26-.33.53-.64.81-.95,1.83-2,4.12-3.56,6.66-4.59,2.92-1.19,6.16-1.68,9.33-1.53,3.15.16,6.26,1.09,8.98,2.7,1.63.96,3.11,2.15,4.4,3.52,1.27-.27,2.56-.45,3.85-.55-1.8-2.33-4.05-4.32-6.59-5.81Z"/>
            <path class="cls-2" d="M641.36,65.75c-2.46-3.91-5.86-7.2-9.85-9.55-3.98-2.35-8.55-3.72-13.16-3.95-.57-.03-1.16-.04-1.72-.04-.55,0-1.1.02-1.66.05-1.11.06-2.22.18-3.33.36-2.22.36-4.43.96-6.57,1.83-2.14.87-4.2,2.01-6.1,3.41-1.9,1.4-3.63,3.07-5.11,4.94-1.18,1.49-2.19,3.1-3.02,4.78-.21.43-.42.86-.61,1.3-.35.81-.66,1.62-.93,2.45-.33,1-.59,2.01-.81,3.03-.08.38-.16.76-.22,1.14-.15.89-.27,1.77-.34,2.65-.02.23-.04.45-.05.68-.04.55-.06,1.1-.07,1.65,0,.24,0,.46,0,.7,0,.04,0,.08,0,.12,0,.35.01.7.03,1.03.06.89.17,1.74.31,2.55.28,1.63.71,3.11,1.19,4.49.59,1.67,1.26,3.21,1.99,4.68.99-.49,2-.92,3.03-1.29-.71-1.42-1.36-2.89-1.91-4.47-.55-1.58-1-3.26-1.22-5.12-.04-.34-.07-.68-.09-1.03-.02-.28-.03-.57-.03-.86v-.75c0-.28.02-.55.03-.83,0-.22.02-.44.04-.66.05-.72.12-1.44.22-2.16.04-.28.08-.55.13-.83.16-.91.36-1.81.61-2.7.27-.95.59-1.89.98-2.82.05-.12.1-.24.15-.35.46-1.07,1.01-2.11,1.62-3.11.48-.77,1-1.52,1.57-2.24,1.3-1.64,2.82-3.1,4.49-4.33,1.67-1.24,3.49-2.24,5.39-3.01,1.9-.77,3.87-1.31,5.86-1.63.99-.16,1.99-.27,2.99-.32.5-.03,1-.04,1.5-.04.5,0,1.02,0,1.53.03,4.09.21,8.13,1.42,11.66,3.5,3.38,1.98,6.28,4.75,8.44,8.01.31.01.62.03.94.05,1.06.07,2.12.21,3.16.4-.32-.59-.66-1.18-1.02-1.75Z"/>
          </g>
          <g>
            <path class="cls-2" d="M654.1,92.82c-.52-2.7-1.69-5.26-3.38-7.4-1.34-1.7-3.01-3.14-4.89-4.23-.49-.29-.99-.55-1.51-.79-.59-.27-1.2-.5-1.82-.71-.88-.28-1.78-.5-2.69-.64-1.1-.17-2.21-.23-3.32-.18-.05,0-.11,0-.16,0-.82.04-1.64.15-2.45.31-.53.11-1.06.24-1.58.39-.55.17-1.09.36-1.62.58-.75.31-1.49.65-2.18,1.05-1.96,1.12-3.67,2.63-5.01,4.41,0,.03.02.05.03.08.1.27.2.54.3.81h0s.44.9.44.9l.85,1.73c.12-.21.23-.42.36-.62,1.09-1.75,2.58-3.2,4.38-4.29.09-.06.18-.12.28-.17.96-.55,2.03-1,3.12-1.33.11-.03.23-.06.34-.09.92-.25,1.86-.41,2.8-.47.04,0,.09,0,.13,0,1.07-.06,2.14.02,3.2.21.86.16,1.71.4,2.53.71.24.1.49.2.73.3.8.36,1.56.81,2.28,1.31,1.1.77,2.08,1.7,2.9,2.74.68.87,1.26,1.81,1.72,2.82.46,1.01.8,2.09,1.01,3.17.42,2.17.31,4.43-.32,6.55-.01.04-.03.08-.04.12.87.92,1.67,1.89,2.41,2.91.3-.68.57-1.38.78-2.1.78-2.63.92-5.43.4-8.11Z"/>
            <path class="cls-2" d="M659.91,91.69c-.7-3.61-2.26-7.05-4.54-9.94-2.28-2.89-5.26-5.22-8.61-6.74-.58-.26-1.17-.5-1.77-.71-1.2-.43-2.44-.76-3.69-.99-.96-.17-1.93-.29-2.91-.34-.79-.04-1.58-.04-2.37,0-.38.02-.76.05-1.15.09-.91.09-1.81.24-2.7.44-.53.12-1.05.25-1.57.41-.55.17-1.1.35-1.63.56-1.17.44-2.32.98-3.41,1.6-1.84,1.04-3.53,2.36-5.01,3.88.56.84,1.07,1.7,1.54,2.59.06.12.13.25.19.38,1.4-1.59,3.06-2.95,4.91-4,.96-.55,1.98-1.02,3.03-1.42.44-.16.88-.31,1.33-.45.6-.18,1.21-.33,1.83-.46.87-.17,1.75-.29,2.63-.34.06,0,.13,0,.19-.01,1.07-.06,2.14-.02,3.2.09.93.11,1.86.27,2.77.51,1.11.29,2.19.67,3.23,1.14.09.04.17.08.26.12,2.77,1.3,5.23,3.25,7.12,5.65,1.96,2.47,3.29,5.43,3.89,8.53.6,3.1.44,6.34-.46,9.36-.4,1.36-.95,2.67-1.64,3.92.65,1.12,1.21,2.29,1.71,3.49,1.35-1.98,2.4-4.17,3.08-6.47,1.05-3.52,1.24-7.31.54-10.92Z"/>
            <path class="cls-2" d="M665.71,90.57c-.44-2.27-1.14-4.46-2.1-6.57-.96-2.1-2.17-4.09-3.6-5.91-2.86-3.64-6.61-6.56-10.81-8.46-2.17-.99-4.47-1.7-6.82-2.13-1.04-.19-2.1-.32-3.16-.4-.31-.02-.62-.04-.94-.05-.86-.03-1.72-.03-2.57.02-.2.01-.41.03-.61.04-1.3.09-2.59.28-3.85.55-.79.17-1.58.37-2.35.6-.2.06-.41.13-.61.19-1.2.39-2.38.85-3.52,1.38-.73.34-1.45.71-2.16,1.12-2.12,1.2-4.09,2.7-5.85,4.43.49.48.96.97,1.4,1.48.27.31.54.63.8.96,1.58-1.57,3.36-2.93,5.28-4.02,1.03-.59,2.09-1.1,3.18-1.54.79-.32,1.6-.61,2.42-.85.3-.09.6-.17.89-.25.92-.24,1.85-.43,2.79-.57.07,0,.14-.02.22-.03.71-.1,1.42-.17,2.14-.21.43-.02.87-.03,1.3-.03,1.01,0,2.02.06,3.02.17,1.31.15,2.6.41,3.87.76,1.29.36,2.56.81,3.78,1.37,3.73,1.69,7.05,4.28,9.58,7.5,2.55,3.22,4.28,7.05,5.06,11.07.79,4.02.58,8.24-.6,12.17-.94,3.17-2.5,6.15-4.56,8.74.38,1.32.66,2.67.84,4.03,3.19-3.33,5.56-7.42,6.87-11.83,1.32-4.42,1.56-9.19.67-13.73Z"/>
          </g>
          <g>
            <path class="cls-2" d="M616.03,106.14l-.87,2.76-2.65,8.43-.09.29c-.02.09-.03.18-.04.27l-.05.46c-.02.17-.03.34-.04.51-.04.62-.05,1.24-.03,1.86.03.75.1,1.49.23,2.23.06.36.13.71.22,1.06.42,1.75,1.12,3.43,2.06,4.98.24-.27.48-.54.71-.83l.36-.48c.12-.16.24-.35.37-.56.21-.34.44-.73.66-1.14-.3-.64-.56-1.3-.77-1.97-.16-.53-.28-1.07-.38-1.61-.09-.55-.15-1.11-.18-1.67-.03-.54-.02-1.09.02-1.64l.06-.62v-.1s.01,0,.01,0c0,0,0,0,0,0l.08-.26.7-2.23.33-1.06,2.73-8.68h-3.45Z"/>
            <path class="cls-2" d="M609.89,123.4c-.15-.88-.24-1.77-.27-2.67-.02-.68-.01-1.36.04-2.05.01-.19.03-.39.05-.58,0,0,0,0,0,0l.03-.29.03-.27c.02-.17.04-.33.07-.5l.15-.49.54-1.73.22-.72.6-1.91,1.04-3.29.87-2.76h-3.45s-.87,2.76-.87,2.76l-1.03,3.29-.29.93-.54,1.7-.24.74-.23.74c-.05.25-.08.51-.12.77l-.04.36-.04.34c-.01.11-.02.22-.03.33,0,.12-.02.24-.03.35-.05.76-.06,1.52-.04,2.27.03,1.08.14,2.16.32,3.22,0,.02,0,.04.01.06.53,3.06,1.69,6,3.38,8.59.74-.37,1.46-.8,2.15-1.3.21-.15.41-.31.62-.47-1.35-2.08-2.31-4.4-2.8-6.82-.04-.2-.08-.41-.12-.62Z"/>
            <path class="cls-2" d="M604.06,124.4c-.02-.13-.04-.25-.06-.38-.17-1.09-.27-2.19-.3-3.29-.02-.82,0-1.64.05-2.45,0-.06,0-.12.01-.17.02-.2.03-.39.05-.59l.04-.38.05-.44c.04-.33.09-.66.15-.99l.28-.89v-.05s.78-2.44.78-2.44l.04-.14,1.04-3.29.87-2.76h-3.06c-.13,0-.26.01-.39.02l-.08.27-.45,1.44-.32,1.03-.77,2.44-.27.85-.5,1.6-.32,1.03-.05.15c-.08.42-.13.84-.2,1.27l-.06.53-.05.43c-.03.29-.05.57-.07.86,0,.02,0,.04,0,.05-.06.87-.08,1.75-.06,2.63.03,1.1.11,2.2.26,3.29.04.31.09.62.14.93.54,3.17,1.63,6.26,3.18,9.07,1.02,0,2.04-.1,3.05-.33.16-.04.33-.08.49-.12-1.73-2.79-2.93-5.93-3.47-9.17Z"/>
          </g>
          <g>
            <path class="cls-2" d="M617.84,124.02s-.02.04-.03.06c-.31.67-.63,1.32-.95,1.91-.22.41-.44.8-.66,1.14-.13.21-.25.4-.37.56l-.16.22-.2.26c-.23.29-.47.56-.71.83-.1.11-.21.23-.31.34-.52.54-1.07,1.05-1.64,1.51-.21.16-.41.32-.62.47-.69.5-1.41.93-2.15,1.3-.81.4-1.65.72-2.51.96-.16.04-.32.09-.49.12-1.01.23-2.03.34-3.05.33-1.13-.01-2.26-.17-3.36-.48-1.05-.29-2.08-.72-3.07-1.27-.49-.28-.98-.58-1.45-.92-.46-.33-.89-.68-1.3-1.05-1.64-1.49-2.9-3.36-3.66-5.45-.1-.28-.2-.56-.28-.84h-.03l-1.28-.02h-.64s-.32-.01-.32-.01h-.16s-.15-.05-.15-.05l-.9-.3c.17.8.39,1.59.67,2.36.94,2.57,2.51,4.9,4.53,6.74.51.46,1.04.89,1.6,1.29.57.41,1.16.78,1.76,1.12,1.21.67,2.48,1.2,3.79,1.57,2.04.57,4.18.73,6.27.49.59-.07,1.18-.17,1.76-.3.6-.14,1.18-.31,1.76-.51.86-.3,1.7-.67,2.5-1.11.71-.38,1.41-.82,2.07-1.3.24-.17.47-.35.7-.53.68-.54,1.33-1.14,1.95-1.78.02-.02.04-.04.06-.06.42-.44.82-.9,1.2-1.37l.26-.33c.08-.1.15-.21.23-.32.11-.16.22-.33.34-.5.04-.07.09-.14.13-.21.63-1.01,1.23-2.19,1.8-3.4.22-.48.44-.96.65-1.45h-3.6Z"/>
            <path class="cls-2" d="M624.3,124.02c-.36.86-.73,1.72-1.12,2.56-.6,1.28-1.24,2.53-1.95,3.68-.14.23-.29.45-.44.67-.04.05-.07.11-.11.16-.19.27-.37.51-.6.79-.43.53-.88,1.05-1.35,1.54-.01.01-.03.03-.04.04-.62.64-1.27,1.24-1.95,1.8-.35.29-.7.57-1.07.83-.55.4-1.12.77-1.7,1.12-.81.48-1.65.89-2.51,1.25-1,.41-2.03.75-3.07.99-.15.03-.29.06-.44.09-2.93.61-6,.5-8.89-.31-1.52-.42-2.98-1.03-4.36-1.8-1.38-.78-2.69-1.7-3.85-2.76-2.34-2.12-4.14-4.81-5.23-7.78-.52-1.41-.87-2.88-1.06-4.37-1.18-.53-2.33-1.13-3.44-1.82.08,2.5.55,4.98,1.41,7.32,1.26,3.45,3.38,6.6,6.1,9.07,1.36,1.24,2.86,2.3,4.46,3.2,1.6.9,3.31,1.61,5.09,2.1,3.55,1,7.36,1.09,10.95.25.54-.12,1.07-.27,1.59-.44,1.21-.38,2.38-.85,3.51-1.42.87-.43,1.71-.92,2.52-1.45.29-.19.58-.39.86-.6.67-.48,1.31-1,1.92-1.55.55-.49,1.08-.99,1.58-1.52.13-.13.25-.27.37-.41.4-.43.79-.88,1.16-1.34.24-.29.5-.63.72-.96.08-.11.15-.22.22-.33.15-.22.29-.44.43-.66.82-1.33,1.51-2.67,2.14-4.03.61-1.31,1.16-2.62,1.69-3.95h-3.55Z"/>
            <path class="cls-2" d="M633.9,124.02h-3.23c-.1.27-.2.54-.31.81-.56,1.41-1.15,2.83-1.82,4.25-.67,1.42-1.39,2.85-2.29,4.31-.03.05-.07.1-.1.15-.2.32-.41.63-.63.96-.13.19-.27.38-.41.56l-.21.28-.2.25c-.21.26-.43.52-.65.77-.33.39-.67.77-1.03,1.14-.3.32-.62.63-.94.94-.88.84-1.81,1.62-2.8,2.35-.04.03-.08.06-.12.09-.77.56-1.57,1.08-2.4,1.55-1.12.65-2.3,1.21-3.51,1.69-1.14.45-2.32.82-3.52,1.09-4.01.94-8.29.84-12.25-.28-1.98-.55-3.89-1.35-5.66-2.34-.89-.5-1.74-1.04-2.56-1.63-.83-.59-1.63-1.24-2.38-1.92-3.03-2.75-5.39-6.26-6.8-10.11-1.18-3.21-1.71-6.64-1.56-10.06-1.08-.85-2.1-1.77-3.05-2.76-.01.11-.03.22-.05.33-.57,4.59-.03,9.29,1.57,13.62,1.58,4.34,4.25,8.3,7.67,11.4.85.78,1.75,1.5,2.68,2.17.92.66,1.88,1.27,2.87,1.82,1.99,1.12,4.14,2.01,6.38,2.64,4.48,1.26,9.33,1.37,13.87.31,2.2-.51,4.32-1.28,6.31-2.27,1.23-.61,2.4-1.3,3.52-2.06.27-.18.53-.37.79-.55.6-.43,1.17-.89,1.73-1.37.9-.76,1.77-1.56,2.57-2.4.09-.09.17-.19.26-.28.56-.6,1.09-1.21,1.6-1.84l.22-.27.19-.24.06-.08c.17-.22.33-.44.49-.66.3-.43.58-.85.83-1.26.25-.4.48-.8.71-1.19.68-1.2,1.25-2.34,1.78-3.47.7-1.5,1.31-2.97,1.89-4.43.27-.67.52-1.35.78-2.02h-.29Z"/>
          </g>
          <g>
            <path class="cls-2" d="M591.12,108.91h-.02s0,0,0,0c0,0,0,0,0,0h0s0,0-.02,0l-.19-.08c-.75-.32-1.47-.71-2.15-1.16-.24-.16-.48-.32-.71-.5-.65-.49-1.25-1.03-1.8-1.63-.61-.66-1.16-1.38-1.63-2.15-.26-.43-.51-.87-.73-1.32-.3-.63-.55-1.28-.75-1.95-.44-1.45-.66-2.97-.61-4.48.04-1.1.2-2.2.5-3.27.3-1.08.72-2.12,1.26-3.08.95-1.72,2.28-3.23,3.88-4.4-.14-.81-.25-1.65-.31-2.55-.02-.34-.03-.68-.03-1.03,0-.04,0-.08,0-.12-.3.17-.59.36-.88.55-2.29,1.51-4.2,3.57-5.52,5.96-1.33,2.39-2.09,5.12-2.17,7.85-.08,2.56.43,5.15,1.48,7.5.07.15.14.3.21.45.45.95,1,1.85,1.62,2.7.54.75,1.15,1.44,1.8,2.09.54.54,1.12,1.04,1.73,1.5.28.21.56.41.85.6.73.48,1.5.91,2.3,1.27.13.06.26.12.39.18l.38.16.26.1.26.09c.09.02.18,0,.28.01h10.96l1.03-3.29h-11.64Z"/>
            <path class="cls-2" d="M592.9,114.82h-2.83l-.06-.02c-.16-.05-.32-.11-.47-.16l-.47-.18-.24-.1-.27-.12c-.15-.07-.31-.13-.46-.2-.8-.37-1.58-.79-2.33-1.27-.44-.28-.88-.58-1.3-.89-.49-.37-.95-.76-1.4-1.17-.7-.63-1.35-1.32-1.94-2.04-.79-.96-1.49-1.99-2.08-3.07-.18-.32-.34-.65-.5-.98-1.37-2.85-2.04-6.02-1.94-9.17.09-3.15.97-6.28,2.5-9.04,1.53-2.76,3.74-5.13,6.37-6.87.79-.52,1.61-.98,2.46-1.39.08-.88.19-1.77.34-2.65.07-.38.14-.76.22-1.14-1.7.62-3.33,1.44-4.84,2.44-3.07,2.02-5.65,4.8-7.43,8.02-1.79,3.22-2.8,6.85-2.91,10.53-.12,3.68.67,7.38,2.26,10.69.51,1.06,1.1,2.08,1.76,3.05.72,1.05,1.53,2.05,2.41,2.97.67.71,1.39,1.37,2.15,1.98.2.16.4.31.6.47.74.55,1.5,1.07,2.3,1.53.79.46,1.61.87,2.45,1.23,0,0,0,0,.01,0l.32.13.36.14c.24.09.49.19.73.27l.74.25.09.03h.29s.39,0,.39,0h2.73s7.58,0,7.58,0c0-.02,0-.04,0-.05.02-.29.04-.58.07-.86l.05-.43.06-.53c.06-.42.12-.85.2-1.27l.05-.15h-8.01Z"/>
            <path class="cls-2" d="M600.42,120.74h-10.1s-.42-.01-.42-.01h-.5s-.25,0-.25,0h-.12s-.12-.04-.12-.04l-.95-.32c-.32-.11-.63-.22-.94-.34h0s-.45-.18-.45-.18l-.35-.15c-.61-.26-1.21-.55-1.79-.86-1.08-.57-2.12-1.21-3.11-1.93-.14-.1-.27-.2-.41-.3-.67-.51-1.32-1.05-1.94-1.62-.97-.89-1.86-1.86-2.68-2.88-1.21-1.52-2.25-3.17-3.09-4.92-1.77-3.69-2.65-7.81-2.52-11.91.13-4.11,1.25-8.14,3.24-11.73,1.99-3.59,4.86-6.68,8.28-8.93,2.18-1.44,4.58-2.55,7.1-3.27.27-.82.58-1.64.93-2.45.19-.44.39-.87.61-1.3-3.72.73-7.29,2.19-10.45,4.28-3.85,2.54-7.09,6.03-9.34,10.08-1.12,2.02-2,4.17-2.61,6.38-.62,2.22-.97,4.52-1.04,6.84-.15,4.63.84,9.28,2.84,13.43,1.32,2.76,3.09,5.31,5.21,7.53.95.99,1.96,1.92,3.05,2.76.14.11.29.23.43.34.7.53,1.43,1.03,2.18,1.49,1.1.68,2.25,1.29,3.44,1.82.12.05.25.11.37.17l.4.17.57.23c.4.15.8.3,1.2.44l.31.1.9.3.15.05h.16s.32,0,.32,0h.64s1.28.03,1.28.03h.77s1.28,0,1.28,0h7.78c-.15-1.09-.24-2.19-.26-3.29Z"/>
          </g>
          <g>
            <path class="cls-2" d="M604.02,102.86h-.05c-1.02.01-2.03.12-3.03.31-1.15.22-2.27.56-3.35,1.01-.51.21-1.02.45-1.5.71-1.89,1.01-3.58,2.38-4.97,4.02h4.77c.55-.42,1.14-.79,1.75-1.12.65-.35,1.34-.64,2.04-.88,1.17-.4,2.4-.65,3.65-.73.1,0,.2,0,.3-.01.13,0,.26-.02.39-.02h1.02s2.03,0,2.03,0h17.07c.32-1.09.63-2.19.94-3.29h-21.07Z"/>
            <path class="cls-2" d="M603.88,96.95s-.1,0-.15,0c-1.24.03-2.48.15-3.71.38-.91.17-1.81.39-2.7.67-1.07.33-2.11.74-3.11,1.22-.31.15-.61.3-.91.46-2.72,1.45-5.14,3.46-7.07,5.86.55.59,1.15,1.14,1.8,1.63.23.17.47.34.71.5,1.67-2.09,3.75-3.83,6.11-5.08.39-.21.78-.4,1.19-.58,1.04-.47,2.11-.85,3.22-1.13.94-.24,1.9-.41,2.86-.52.6-.07,1.21-.1,1.82-.11h1.56s20.33,0,20.33,0c.13-.47.71-2.66.88-3.29h-22.81Z"/>
            <path class="cls-2" d="M626.03,91.03h-16.66s-.98,0-.98,0h-1.46s-3.12,0-3.12,0c-.23,0-.46.01-.69.02-.96.04-1.92.12-2.87.25-1.13.16-2.25.38-3.36.67-.86.22-1.71.49-2.54.79-1.03.37-2.05.8-3.03,1.29-.27.13-.53.27-.8.41-2.75,1.46-5.26,3.39-7.4,5.66.21.67.45,1.32.75,1.95.22.45.46.89.73,1.32,2.08-2.45,4.62-4.52,7.46-6.03.26-.14.53-.28.8-.41.99-.49,2.02-.91,3.06-1.26.86-.29,1.73-.54,2.62-.74,1.16-.26,2.34-.44,3.52-.54.59-.05,1.19-.08,1.79-.09h3.5s1.76,0,1.76,0h1.68s0,0,0,0h16.58c.03-.12.06-.24.09-.36.25-.97.5-1.95.74-2.93h-2.18Z"/>
          </g>
        </g>
        <path class="cls-2" d="M1213.64,108.2v-3.48h-544.22c-.37,1.18-.81,2.34-1.32,3.48h545.53Z"/>
        <path class="cls-2" d="M1213.64,101.96v-3.48h-542.93c-.12,1.17-.31,2.33-.56,3.48h543.48Z"/>
        <path class="cls-2" d="M670.86,95.9h542.78v-3.48h-542.89c.1,1.16.14,2.32.12,3.48Z"/>
        <path class="cls-2" d="M0,104.73v3.48h565.52c-.51-1.13-.95-2.29-1.32-3.48H0Z"/>
        <path class="cls-2" d="M0,98.48v3.48h563.47c-.25-1.15-.43-2.31-.55-3.48H0Z"/>
        <path class="cls-2" d="M562.87,92.42H0v3.48h562.76c-.01-.54-.02-1.08,0-1.62.02-.62.06-1.24.11-1.85Z"/>
      </g>
      <g>
        <path class="cls-3" d="M554.55,61.09l-5.22,7.79-.8-.53c.49-.73.8-1.31.94-1.74.14-.43.09-.83-.15-1.18s-.69-.75-1.34-1.19l-11.37-7.63c-.62-.42-1.14-.65-1.56-.7-.42-.05-.81.08-1.18.38-.37.3-.77.77-1.2,1.41l-.8-.54,9.48-14.14,4.46,2.77-.57.85c-.72-.3-1.33-.53-1.83-.67-.5-.14-.95-.16-1.36-.04-.41.11-.83.39-1.27.83-.44.44-.95,1.09-1.53,1.96l-2.83,4.23,6.72,4.51,2.1-3.14c.51-.76.83-1.39.96-1.9.13-.5.06-.96-.22-1.36-.28-.41-.77-.85-1.48-1.32l.61-.9,6.17,4.14-.61.9c-.73-.49-1.32-.77-1.77-.86-.46-.09-.88.03-1.27.36-.39.33-.84.88-1.35,1.64l-2.1,3.14,5.58,3.74c.6.4,1.11.62,1.52.66.41.03.81-.12,1.19-.45.38-.34.8-.85,1.26-1.54l.8.54Z"/>
        <path class="cls-3" d="M567.87,46.92c-2.16,1.84-4.16,2.69-6,2.54-1.84-.15-3.73-1.36-5.65-3.61l-6.01-7.03c-.48-.57-.92-.95-1.32-1.15-.39-.2-.81-.21-1.26-.04-.44.17-.99.53-1.64,1.08l-.62-.73,7.01-5.99.62.73c-.68.58-1.14,1.08-1.38,1.49-.24.41-.27.83-.11,1.25.16.42.51.94,1.04,1.56l5.88,6.89c.9,1.05,1.8,1.83,2.69,2.31.89.49,1.83.63,2.83.42.99-.2,2.06-.79,3.22-1.78,1.59-1.36,2.42-2.72,2.48-4.07.06-1.36-.62-2.87-2.05-4.54l-5.24-6.13c-.73-.86-1.34-1.47-1.82-1.83s-.95-.49-1.41-.37c-.46.12-1.03.46-1.72,1.04l-.62-.73,5.96-5.09.62.73c-.7.6-1.14,1.11-1.32,1.55-.19.44-.14.91.14,1.42.28.51.78,1.18,1.5,2.03l5.01,5.86c1.88,2.21,2.79,4.3,2.73,6.28-.06,1.98-1.25,3.95-3.55,5.92Z"/>
        <path class="cls-3" d="M585.58,35.18l-8.2,3.7-.39-.88c.74-.33,1.27-.64,1.58-.93s.45-.65.4-1.09c-.05-.45-.26-1.08-.63-1.89l-5.64-12.51c-.25-.54-.49-.95-.74-1.21-.25-.26-.59-.38-1.02-.35-.43.03-1.04.22-1.81.57l-.39-.88,7.18-3.24c1.46-.66,2.82-1.1,4.08-1.33,1.27-.23,2.37-.15,3.33.25.95.4,1.71,1.22,2.27,2.47.49,1.09.64,2.08.45,2.99-.19.91-.57,1.72-1.15,2.43-.58.72-1.22,1.35-1.93,1.91l.05.12c.42.05.94.21,1.58.5.63.29,1.49.75,2.57,1.37,1.08.63,2.5,1.47,4.26,2.52.76.43,1.39.63,1.91.61.52-.02,1.11-.18,1.77-.48l.39.88-4.81,2.17c-1.34-.85-2.46-1.55-3.36-2.12-.9-.57-1.66-1.04-2.28-1.43-.62-.39-1.17-.73-1.66-1.03-.48-.3-.97-.59-1.45-.89-.49-.32-.88-.47-1.17-.45-.29.01-.69.14-1.22.37l-.82.37,2.33,5.16c.36.8.7,1.37,1.01,1.7.31.34.7.47,1.16.4.46-.07,1.11-.29,1.95-.67l.4.87ZM578.22,26.57l1.12-.47c1.04-.54,1.9-1.14,2.56-1.79.67-.65,1.08-1.39,1.25-2.21.17-.82.02-1.75-.45-2.78-.53-1.17-1.3-1.92-2.32-2.27-1.02-.35-2.32-.17-3.9.55-.31.14-.63.29-.96.45-.33.16-.64.33-.93.51l3.62,8.02Z"/>
        <path class="cls-3" d="M605.48,29.15l-9.01,1.92-.2-.94c.94-.2,1.61-.42,2.02-.67.4-.25.62-.61.65-1.09.03-.47-.05-1.16-.24-2.06l-2.62-12.33c-.17-.81-.36-1.45-.57-1.89-.21-.45-.54-.72-1.01-.82-.47-.1-1.2-.04-2.21.17l-.2-.94,9.01-1.92.2.94c-.98.21-1.67.45-2.07.74-.4.28-.59.67-.59,1.16,0,.49.1,1.14.27,1.96l2.62,12.33c.19.9.4,1.56.62,1.98.22.42.57.67,1.04.73.47.06,1.17,0,2.09-.2l.2.94Z"/>
        <path class="cls-3" d="M616,28.45l-9.22-.02v-.96c.98,0,1.69-.07,2.13-.22.44-.15.72-.45.85-.91s.19-1.16.2-2.1l.03-12.61c0-.83-.05-1.49-.16-1.97-.11-.48-.38-.82-.81-1.01-.44-.19-1.17-.29-2.19-.29v-.96s9.22.02,9.22.02v.96c-1,0-1.73.09-2.18.28-.45.19-.72.53-.82,1.01-.1.48-.15,1.14-.15,1.97v6.02s.15,0,.15,0l5.2-5.04c.75-.7,1.31-1.3,1.7-1.79.38-.49.58-.97.58-1.44,0-.34-.09-.59-.27-.75-.18-.16-.5-.24-.94-.24h-.51s0-.96,0-.96l7.84.02v.96c-.6.02-1.11.11-1.52.25-.42.15-.82.38-1.22.69s-.88.73-1.46,1.26l-6.96,6.48,9.17,9.04c.53.49,1.02.84,1.47,1.06.45.21,1.07.32,1.86.32v.96s-9.25-.02-9.25-.02v-.96s.64,0,.64,0c.45,0,.77-.05.96-.14.19-.1.29-.26.29-.5,0-.36-.16-.77-.48-1.22-.32-.45-.82-1.02-1.5-1.71-.68-.69-1.57-1.57-2.65-2.61l-2.81-2.82h-.29s-.01,5.76-.01,5.76c0,.9.06,1.57.19,2.03.13.46.42.78.86.95.45.17,1.14.26,2.08.26v.96Z"/>
        <path class="cls-3" d="M634.58,30.41l-6.42-1.97.28-.92c.57.17,1.06.22,1.46.15.4-.08.85-.34,1.35-.81.5-.46,1.17-1.2,2.02-2.21l11.2-13.37,1.25.39,2.15,18.83c.14,1.14.36,1.97.65,2.51.29.54.85.93,1.66,1.18l-.28.92-8.23-2.53.28-.92c.31.09.63.17.97.23s.64.04.92-.05c.27-.09.46-.32.57-.66.07-.22.11-.5.13-.81.02-.32,0-.73-.07-1.25l-.38-3.46-.03-.68-.76-9.94-.09-.03-6.3,7.77-.4.55-2.59,3.09c-.16.22-.31.44-.45.65-.14.21-.26.46-.35.75-.13.43-.05.76.23.99.29.23.79.46,1.5.68l-.28.92ZM644.47,26.11l-8.5-2.61.83-1.08,7.59,2.33.08,1.37Z"/>
        <path class="cls-3" d="M664.73,44.99l-14.35-9.28.52-.81c.73.47,1.32.78,1.75.92s.82.08,1.18-.17c.35-.25.76-.73,1.21-1.43l7.24-11.21c.44-.68.71-1.24.81-1.69.1-.45,0-.85-.28-1.21-.29-.36-.8-.78-1.53-1.26l.52-.81,14.11,9.12-2.69,4.51-.86-.56c.45-.98.7-1.78.73-2.4.04-.62-.19-1.2-.66-1.74-.48-.54-1.27-1.17-2.38-1.88l-3.95-2.55-4.41,6.83,3.14,2.03c.82.53,1.5.87,2.02,1,.52.13.99.06,1.41-.23.42-.29.86-.79,1.32-1.51l.86.56-4.03,6.23-.86-.56c.48-.73.75-1.33.82-1.79.07-.46-.08-.89-.44-1.27-.36-.38-.95-.84-1.78-1.38l-3.14-2.03-4.78,7.39,3.47,2.24c1.04.67,1.91,1.16,2.61,1.48.7.31,1.32.45,1.86.42.54-.03,1.09-.22,1.66-.57.57-.35,1.25-.83,2.03-1.47l.86.56-3.98,4.51Z"/>
        <path class="cls-3" d="M672.28,52.68l-6.1-6.61.71-.65c.55.6,1.01,1,1.38,1.21.37.21.76.22,1.17.04s.94-.58,1.6-1.19l10.09-9.31c.44-.41.75-.77.92-1.08s.17-.68,0-1.08-.54-.91-1.12-1.54l.71-.65,5.34,5.79c1.08,1.18,1.94,2.33,2.56,3.46.62,1.13.89,2.21.81,3.24-.08,1.03-.62,2.01-1.62,2.93-.88.81-1.77,1.27-2.69,1.38-.92.11-1.81,0-2.67-.32-.86-.32-1.67-.73-2.42-1.23l-.09.09c.09.41.1.96.02,1.65-.07.69-.24,1.65-.49,2.87-.25,1.22-.6,2.83-1.04,4.84-.17.85-.16,1.52.02,2,.18.48.52.99,1.01,1.52l-.71.65-3.58-3.88c.38-1.54.7-2.83.95-3.86.25-1.03.46-1.9.64-2.61.17-.71.32-1.34.45-1.89.13-.55.26-1.11.38-1.66.14-.57.16-.99.06-1.25s-.35-.61-.74-1.04l-.61-.66-4.16,3.84c-.64.59-1.07,1.09-1.29,1.5-.22.41-.23.82-.01,1.23.21.42.62.96,1.25,1.64l-.71.65ZM678.13,42.97l.8.92c.84.82,1.68,1.44,2.51,1.87.83.43,1.66.59,2.5.49.83-.1,1.67-.54,2.5-1.3.94-.87,1.41-1.84,1.42-2.92s-.58-2.25-1.75-3.52c-.23-.25-.47-.51-.73-.77-.25-.26-.51-.5-.77-.72l-6.47,5.97Z"/>
        <path class="cls-3" d="M684.31,69.62l-4.69-7.93.83-.49c.49.83.92,1.39,1.28,1.7.37.3.78.39,1.24.27.46-.12,1.08-.42,1.87-.89l10.85-6.42c.72-.42,1.25-.8,1.61-1.14.36-.34.51-.74.45-1.21-.06-.47-.35-1.15-.87-2.03l.83-.49,4.69,7.93-.83.49c-.51-.86-.96-1.44-1.36-1.73-.39-.29-.82-.35-1.28-.19-.46.16-1.05.45-1.77.88l-10.85,6.42c-.79.47-1.35.87-1.68,1.21-.33.34-.45.75-.36,1.22.09.47.37,1.1.85,1.91l-.83.49Z"/>
      </g>
      <g>
        <path class="cls-3" d="M540.11,147.35l-2.69-5.09.53-.28c.28.53.53.9.75,1.1.22.2.47.27.76.21.29-.06.69-.23,1.2-.5l6.97-3.68c.46-.24.81-.46,1.04-.66.23-.2.34-.45.32-.75s-.18-.73-.48-1.29l.53-.28,2.69,5.09-.53.28c-.29-.55-.56-.93-.79-1.12-.24-.19-.5-.24-.79-.16-.29.09-.67.25-1.13.49l-6.97,3.68c-.51.27-.87.5-1.08.71-.22.2-.3.45-.26.75.04.29.2.7.47,1.22l-.53.28Z"/>
        <path class="cls-3" d="M543.27,153.04l-.37-.5,3.38-2.7.37.5c-.6.74-1,1.38-1.2,1.93-.2.55-.24,1.06-.1,1.55.13.49.4,1.01.81,1.55.3.41.61.71.94.92.33.21.67.3,1.04.28s.76-.19,1.17-.49c.47-.35.77-.77.89-1.26.12-.49.15-1.03.09-1.62-.06-.59-.13-1.19-.2-1.81-.07-.61-.11-1.22-.12-1.82s.08-1.17.28-1.71c.2-.54.58-1.01,1.14-1.42.57-.42,1.15-.63,1.73-.63s1.15.16,1.7.47c.54.31,1.02.75,1.43,1.31.36.49.6.91.72,1.23.12.33.19.6.22.82.03.22.09.39.18.52.1.13.21.21.34.24.13.03.29,0,.5-.08l.31.42-3.14,2.48-.36-.48c.73-.88,1.17-1.67,1.32-2.36.15-.69-.08-1.44-.69-2.25-.4-.55-.84-.88-1.31-1-.47-.12-.96.01-1.47.38-.4.29-.66.66-.77,1.09-.12.43-.16.92-.11,1.45.04.53.09,1.08.15,1.65.06.5.12,1.01.17,1.52s.07,1.01.03,1.49c-.04.48-.17.94-.38,1.37-.21.43-.56.82-1.05,1.18-.62.46-1.25.7-1.89.73-.64.03-1.25-.12-1.83-.45-.58-.33-1.1-.81-1.56-1.43-.41-.56-.7-1.04-.88-1.45-.18-.41-.3-.74-.36-1-.06-.26-.14-.45-.24-.58-.08-.11-.2-.17-.36-.18-.16-.01-.32.03-.49.14Z"/>
        <path class="cls-3" d="M563.09,173.79c-1.68-1.29-2.6-2.72-2.73-4.31-.14-1.59.44-3.23,1.74-4.93.9-1.18,1.88-2,2.95-2.47,1.07-.47,2.15-.61,3.25-.44,1.1.17,2.15.64,3.14,1.4.58.45,1.01.85,1.28,1.21.27.36.47.66.59.91.12.24.25.42.38.51.14.1.28.13.43.08.15-.05.34-.12.58-.21l.46.35-2.78,3.64-.54-.41c.63-1.2.85-2.23.65-3.1-.19-.87-.71-1.63-1.56-2.27-1.12-.86-2.31-1.11-3.55-.76-1.25.35-2.41,1.23-3.49,2.64-1.24,1.62-1.83,3.08-1.79,4.38.04,1.3.63,2.38,1.76,3.25.5.38.98.63,1.43.74.46.11.94.18,1.43.19l1.31-1.72c.29-.38.48-.69.57-.94.08-.24.05-.48-.09-.7-.15-.22-.42-.49-.83-.8l.39-.51,3.93,3-.39.51c-.45-.34-.8-.49-1.05-.44-.25.05-.57.32-.95.82l-1.76,2.3c-.82-.11-1.6-.29-2.33-.54-.73-.25-1.54-.71-2.42-1.38Z"/>
        <path class="cls-3" d="M579.55,183.68c-1.2-.55-2.12-1.27-2.76-2.17-.64-.89-.98-1.91-1.02-3.05-.04-1.14.23-2.35.82-3.64.57-1.24,1.3-2.21,2.19-2.93.89-.71,1.89-1.13,2.99-1.25,1.1-.12,2.25.1,3.46.65,1.21.56,2.13,1.28,2.76,2.18.63.9.97,1.9,1.02,3.02.05,1.11-.2,2.27-.75,3.47-.58,1.27-1.33,2.28-2.23,3.02-.9.74-1.91,1.18-3.01,1.32-1.1.14-2.26-.07-3.46-.62ZM579.92,182.92c1.3.59,2.48.57,3.54-.07s2.01-1.88,2.85-3.71c.5-1.09.77-2.11.8-3.05.04-.94-.14-1.77-.53-2.46-.39-.7-.98-1.23-1.77-1.59-1.18-.54-2.33-.5-3.45.13s-2.06,1.76-2.82,3.42c-.78,1.71-1.08,3.21-.89,4.5.19,1.29.95,2.24,2.25,2.84Z"/>
        <path class="cls-3" d="M598.03,189.74c-1.29-.27-2.35-.77-3.17-1.5s-1.38-1.65-1.67-2.75c-.29-1.1-.3-2.35-.01-3.73.28-1.33.77-2.44,1.48-3.34s1.59-1.52,2.64-1.88c1.05-.36,2.22-.41,3.51-.14,1.31.27,2.37.77,3.18,1.51s1.37,1.64,1.66,2.71c.29,1.08.31,2.26.04,3.55-.28,1.37-.78,2.52-1.5,3.44-.72.92-1.6,1.57-2.64,1.95-1.05.38-2.21.44-3.51.17ZM598.22,188.92c1.4.29,2.54,0,3.44-.86.89-.86,1.55-2.28,1.96-4.25.25-1.17.28-2.23.1-3.16-.17-.93-.53-1.69-1.07-2.28-.54-.6-1.23-.98-2.08-1.16-1.27-.26-2.38.03-3.33.89s-1.62,2.18-1.99,3.97c-.38,1.84-.34,3.37.14,4.58.48,1.22,1.42,1.97,2.83,2.26Z"/>
        <path class="cls-3" d="M615.74,191.32h-5.72s0-.59,0-.59c.59,0,1.02-.04,1.3-.13s.46-.27.54-.54c.08-.27.12-.68.12-1.21v-8.38c-.02-.49-.08-.86-.2-1.09-.12-.23-.32-.39-.6-.47-.28-.08-.67-.12-1.18-.12v-.6s5.5,0,5.5,0c1.04,0,2.01.11,2.91.33s1.68.58,2.35,1.08c.67.51,1.19,1.17,1.57,2,.38.83.57,1.85.58,3.08,0,1.15-.17,2.14-.51,2.98-.34.84-.82,1.53-1.46,2.07-.63.54-1.39.94-2.27,1.2-.88.26-1.86.39-2.94.39ZM615,190.56c1.21,0,2.25-.17,3.12-.5s1.53-.91,2-1.73c.47-.83.7-1.99.7-3.48,0-1.91-.49-3.36-1.47-4.36-.97-1-2.5-1.49-4.56-1.49-.16,0-.32,0-.47,0-.15,0-.32.01-.51.04l.02,11.46c.2.01.4.03.59.04.19.01.39.02.59.02Z"/>
        <path class="cls-3" d="M643.09,187l-5.43,1.87-.2-.57c.57-.2.97-.38,1.2-.55.23-.17.33-.41.3-.71-.03-.3-.13-.73-.33-1.29l-2.57-7.45c-.17-.49-.33-.87-.49-1.13-.16-.26-.39-.4-.69-.43-.3-.02-.74.06-1.32.26l-.2-.57,5.43-1.87.2.57c-.59.2-1,.41-1.23.61-.23.2-.32.46-.28.76s.15.7.32,1.19l1.1,3.18,6.2-2.14-1.1-3.18c-.17-.49-.34-.87-.5-1.13s-.39-.41-.69-.43c-.3-.02-.74.06-1.31.26l-.2-.57,5.41-1.87.2.57c-.59.2-1,.41-1.23.61-.23.2-.32.46-.28.75.04.3.14.7.32,1.2l2.57,7.45c.19.54.36.94.53,1.19.17.25.4.38.69.38.29,0,.72-.1,1.29-.3l.2.57-5.41,1.87-.2-.57c.57-.2.97-.38,1.2-.56.23-.18.33-.42.3-.72-.03-.3-.13-.72-.32-1.27l-1.22-3.54-6.2,2.14,1.22,3.54c.19.55.37.96.53,1.2.16.25.39.37.69.37s.73-.1,1.29-.3l.2.57Z"/>
        <path class="cls-3" d="M660.14,179.32l-3.54,2.26-.32-.51c.31-.2.54-.41.66-.63s.18-.55.17-.97c-.02-.42-.1-1.04-.23-1.85l-1.81-10.75.69-.44,9.83,6.62c.6.39,1.08.63,1.46.71.38.08.79-.03,1.24-.31l.32.51-4.54,2.89-.32-.51c.17-.11.33-.23.5-.37.17-.14.28-.29.35-.46s.04-.35-.08-.54c-.08-.12-.19-.25-.33-.39-.14-.14-.35-.3-.62-.47l-1.8-1.23-.33-.26-5.04-3.67-.05.03,1.14,6.15.1.41.42,2.48c.04.16.08.32.13.48.04.15.11.31.21.47.15.24.34.33.57.29.23-.04.54-.19.93-.44l.32.51ZM662.11,172.88l-4.69,2.99-.18-.84,4.18-2.66.68.51Z"/>
        <path class="cls-3" d="M677.36,165.95l-4.01,4.08-.43-.42c.41-.42.69-.76.82-1.02.13-.26.13-.52,0-.76-.14-.25-.4-.56-.78-.93l-5.97-5.88c-.35-.35-.65-.56-.9-.64-.25-.08-.5-.05-.75.1-.25.14-.56.4-.91.76l-.43-.42,3.86-3.92c.73-.74,1.49-1.36,2.28-1.84.79-.49,1.6-.79,2.42-.91.83-.12,1.67-.02,2.53.28.86.31,1.72.89,2.6,1.75.82.8,1.4,1.62,1.77,2.45.36.83.51,1.66.45,2.49-.06.83-.3,1.65-.74,2.46-.43.81-1.03,1.6-1.78,2.37ZM676.3,165.94c.85-.86,1.46-1.72,1.84-2.57.37-.85.43-1.73.17-2.64-.26-.91-.92-1.89-1.99-2.94-1.36-1.34-2.74-2.01-4.13-2.02-1.39,0-2.82.72-4.27,2.2-.11.11-.22.23-.33.33s-.22.24-.33.39l8.17,8.04c.15-.13.3-.26.44-.39.15-.13.29-.26.43-.41Z"/>
        <path class="cls-3" d="M688.91,151.83l-3.31,4.71-.49-.34c.34-.49.56-.88.63-1.17.08-.29.02-.55-.16-.78-.19-.23-.52-.51-.99-.84l-6.45-4.53c-.43-.3-.78-.51-1.06-.62-.28-.12-.55-.1-.81.06-.26.16-.57.5-.94,1.02l-.49-.34,3.31-4.71.49.34c-.36.51-.57.92-.63,1.22s.01.56.22.78c.21.22.53.48.96.78l6.45,4.53c.47.33.84.54,1.12.64.28.1.54.06.79-.11.24-.17.53-.5.87-.98l.49.34Z"/>
        <path class="cls-3" d="M695.68,139.36l-2.52,5.22-.54-.26c.24-.5.39-.9.43-1.19.04-.29-.04-.54-.26-.75-.22-.21-.6-.44-1.14-.7l-8.66-4.18-.56,1.15c-.32.66-.49,1.19-.52,1.58-.03.39.1.75.38,1.06.28.31.72.69,1.31,1.14l-.27.56-3.15-1.76,4.8-9.96,3.31,1.42-.27.56c-.72-.19-1.29-.29-1.71-.32-.42-.02-.77.09-1.06.36s-.59.73-.92,1.4l-.54,1.13,8.66,4.18c.54.26.96.41,1.26.45.3.04.55-.05.75-.26.2-.21.43-.58.67-1.1l.54.26Z"/>
      </g>
    </g>
  </g>
</svg>